<svg id="Layer_1" data-name="Layer 1" xmlns="http://www.w3.org/2000/svg" viewBox="0 0 1366 768">
  <path d="M627,174H454.83A107,107,0,0,0,348,73h-1.3a60.5,60.5,0,0,0-58.2-44h-53a60.5,60.5,0,0,0-58.23,44.11A107,107,0,0,0,75.05,176.84,86,86,0,0,0,11,260h0a86,86,0,0,0,86,86H627a86,86,0,0,0,86-86h0A86,86,0,0,0,627,174Z" fill="#fff"/>
  <path d="M491.55,378.67h-53A60.52,60.52,0,0,0,381.86,418H333.5A60.5,60.5,0,0,0,273,478.5h0A60.5,60.5,0,0,0,333.5,539h53a60.53,60.53,0,0,0,56.69-39.33h48.36a60.5,60.5,0,0,0,60.5-60.5h0A60.5,60.5,0,0,0,491.55,378.67Z" fill="#fff"/>
  <path d="M1321.27,232.24A98.66,98.66,0,0,0,1327,199h0a99,99,0,0,0-99-99H1117a99,99,0,0,0-99,99h0a98.87,98.87,0,0,0,1.64,18H962.5A95.5,95.5,0,0,0,867,312.5h0A95.5,95.5,0,0,0,962.5,408h307a95.5,95.5,0,0,0,95.5-95.5h0A95.43,95.43,0,0,0,1321.27,232.24Z" fill="#fff"/>
  <path d="M992.46,561.81h-6.55a83.34,83.34,0,0,0,14.6-47.14h0c0-47.31-39.61-85.67-88.46-85.67H824c-37.66,0-69.82,22.8-82.58,54.93H683.07c-37.86,0-68.56,29.73-68.56,66.41h0a64.81,64.81,0,0,0,1,11.47h-26c-51.66,0-93.54,40.56-93.54,90.6h0c0,50,41.88,90.59,93.54,90.59H992.46c51.66,0,93.54-40.56,93.54-90.59h0C1086,602.37,1044.12,561.81,992.46,561.81Z" fill="#fff"/>
</svg>
