<svg id="Layer_1" data-name="Layer 1" xmlns="http://www.w3.org/2000/svg" viewBox="0 0 851.13 1135.36">
  <path d="M851.13,1135.36V0l-21,1.14C796.09,3.25,726.89,6.49,684,29.66c-42.6,22.77-60.16,63.81-60,118.39,0,53.82,18,120.79.35,162.41-16.93,41.37-68.48,57.73-128.91,68.11-59.69,10.06-129.07,13.54-167.69,39.83-38.62,25.3-46.66,73.65-42.11,130.19,3.9,57.44,21.65,124.73,26.2,181.27,4,57.35-4.19,105.87-42.7,131-38.56,26.21-108.17,30-141.84,58.68-34.45,29.08-34.06,82.84-51.35,124.7-17.43,41.37-51,70.46-68.6,84.87L0,1135.36Z" fill="#09f"/>
</svg>
