<svg id="Layer_1" data-name="Layer 1" xmlns="http://www.w3.org/2000/svg" viewBox="0 0 301 301">
  <text/>  <path d="M36.72,28.77h-.19C36.72,28.84,36.74,29,36.72,28.77Z" fill="#fff"/>
  <g>
    <polygon points="166.21 61.65 86.61 62.14 87.19 235.14 212.7 237.33 213.25 107.74 166.72 107.85 166.21 61.65" fill="#141414" stroke="#000" stroke-miterlimit="10"/>
    <path d="M279.17,1H22.83A21.83,21.83,0,0,0,1,22.83V279.17A21.83,21.83,0,0,0,22.83,301H279.17A21.83,21.83,0,0,0,301,279.17V22.83A21.83,21.83,0,0,0,279.17,1ZM241.78,267.06,58.07,263.85,57.3,33.11l137.8-.85.28,25.49h23.51V78.68l23.69.7Z" fill="#141414" stroke="#000" stroke-miterlimit="10"/>
  </g>
</svg>
