<svg id="Layer_1" data-name="Layer 1" xmlns="http://www.w3.org/2000/svg" viewBox="0 0 300 300">
  <path d="M278.17,0H21.83A21.83,21.83,0,0,0,0,21.83V278.17A21.83,21.83,0,0,0,21.83,300h88.23c.44-7.68,1.1-15.43,2.07-23.35-29.29,5.06-38.35,3.12-53.42-5.8-12.46-7.37-7.77-16.28-26.61-38.53C30.32,230.2,24,227,22,225.1s-5.06-4.78-3.49-7,9.8-5.85,20,.61c21.78,13.8,17.94,23.91,35.72,32.69,10.26,5.06,37.5,0,37.52-.2a63,63,0,0,1,3.07-12.25c2.38-6.89,3.3-9.34,9-13.82-21.54-1.31-44.34-8.31-60.49-22.44C45.12,186.76,31,150.8,38,116.68c2.74-13.34,7.75-23.79,17.69-37.8-5.4-17.23-7.77-33.63,1.87-52.42,20,1,37.49,8,52.45,21.15,26.67-9.43,73.16-8.49,96.75.17.36.13,40.56-27.9,53.07-20.16,8.28,5.12,7.77,38.21,1.46,51.67-.15.33,8.92,8,13.59,21.81,8.19,24.1,6.61,56.14-4.43,79.52-8.54,18.09-27.2,38.26-77.21,43.79,10.93,8.07,13.35,25.58,13.07,37.06-.32,12.89,0,25.74.07,38.53h71.81A21.83,21.83,0,0,0,300,278.17V21.83A21.83,21.83,0,0,0,278.17,0Z" fill="#141414"/>
</svg>
