<svg id="Layer_1" data-name="Layer 1" xmlns="http://www.w3.org/2000/svg" viewBox="0 0 300 300">
  <path d="M278.17,0H21.83A21.83,21.83,0,0,0,0,21.83V278.17A21.83,21.83,0,0,0,21.83,300H278.17A21.83,21.83,0,0,0,300,278.17V21.83A21.83,21.83,0,0,0,278.17,0ZM86.85,265.59H40.36v-150H86.85ZM63.1,90.4a30,30,0,1,1,30-30A30,30,0,0,1,63.1,90.4ZM262,265.59H215.17V178.64c0-20.83-5.44-27.17-17.52-27.17-10.56,0-16.9,5.13-26.26,13.58V265.59h-46.5v-150h38l3.32,18.72h1.21c12.38-12.08,27.48-22.34,48-22.34,32.6,0,46.49,23.24,46.49,60.68Z" fill="#141414" stroke="#000" stroke-miterlimit="10"/>
</svg>
