<svg id="Layer_1" data-name="Layer 1" xmlns="http://www.w3.org/2000/svg" viewBox="0 0 300 300">
  <g>
    <polygon points="0 63.47 0 237.49 106.93 133.86 0 63.47" fill="#141414"/>
    <polygon points="300 237.28 300 66.22 190.28 136.32 300 237.28" fill="#141414"/>
    <path d="M158.08,156.89a15,15,0,0,1-16.33-.11l-17.7-11.65L0,265.35v12.82A21.83,21.83,0,0,0,21.83,300H278.17A21.83,21.83,0,0,0,300,278.17V264.46l-127.15-117Z" fill="#141414"/>
    <path d="M278.17,0H21.83A21.83,21.83,0,0,0,0,21.83v5.72l150.12,98.82L300,30.61V21.83A21.83,21.83,0,0,0,278.17,0Z" fill="#141414"/>
  </g>
</svg>
