<svg id="Layer_1" data-name="Layer 1" xmlns="http://www.w3.org/2000/svg" viewBox="0 0 1440 963.21">
  <path d="M1416,68.76c-24,10.3-72,32.3-120,53.3s-96,43-144,48-96-5-144-37.3c-48-31.7-96-85.7-144-112-48-26.7-96-26.7-144-5.4-48,21.7-96,63.7-144,58.7s-96-59-144-58.7c-48-.3-96,53.7-144,58.7s-96-37-144-53.3c-48-15.7-96-5.7-120,0L0,26.06v745l21.8,26.7c21.8,26.3,65.2,80.3,109.2,101.3,43.5,21,87,11,131-21.3,43.5-31.7,87-85.7,131-96,43.4-10.7,87,21.3,131,64,43.3,42.3,87,96.3,131,112,43.2,16.3,87-5.7,130-42.7,44.1-37,88-91,131-128,44-37,88-59,131-42.7,43.9,15.7,88,69.7,131,80,43.8,10.7,87-21.3,131-32,43.7-10.3,87-.3,109,5.4l22,5.3v-745Z" fill="#09f"/>
  <path d="M1502.15,359.33c-37.85,5.6-113.55,17.54-189.25,28.94s-151.4,23.34-227.1,26.06-151.4-2.72-227.1-20.25c-75.7-17.21-151.4-46.53-227.1-60.8-75.7-14.5-151.4-14.5-227.1-2.93-75.7,11.78-151.4,34.58-227.1,31.86S26,330.18-49.7,330.35c-75.7-.17-151.4,29.15-227.1,31.86s-151.4-20.08-227.1-28.93c-75.7-8.53-151.4-3.1-189.25,0L-731,336.15V740.6l34.38,14.49c34.38,14.28,102.83,43.6,172.22,55,68.6,11.4,137.2,6,206.6-11.57,68.6-17.21,137.2-46.52,206.59-52.11C-42.76,740.6,26,758,95.39,781.15c68.29,23,137.21,52.28,206.6,60.8,68.13,8.85,137.21-3.09,205-23.18,69.55-20.08,138.78-49.4,206.6-69.49,69.39-20.08,138.78-32,206.6-23.18,69.23,8.53,138.78,37.84,206.59,43.43,69.08,5.81,137.21-11.56,206.6-17.37,68.92-5.59,137.21-.16,171.9,2.93L1540,758V353.53Z" fill="#00456c"/>
  <path d="M-14.66,264.83c25.37-1.08,76.13-3.56,126.88-5.8s101.51-4.73,152.06-3.24,100.92,6.47,151,16.65,99.94,25.29,150.1,34.08,100.66,11.53,151.41,9.21S818.56,306.18,869,310s100.26,19.07,150.76,21.65,101.64-7.22,152.19-5.74,100.53,13.93,150.82,20.39c50.3,6.31,100.91,6.63,126.23,6.62l25.31.09,8.34-158.82.16-3,.62-11.9-22.6-7.43c-22.61-7.34-67.6-22.33-113.63-29.66-45.5-7.3-91.38-7.37-138.06-2.27-46.14,5-92.56,15.19-139,15.16-45.79.1-91.26-9.78-137-22.16-45-12.26-90.33-27.27-136.42-33.36-45.25-6.19-91.59-3.48-137.27,2.78-46.84,6.19-93.68,16.36-139.37,22.61-46.74,6.2-93.29,8.9-138.32,2.73-46-6.09-91.71-21.12-136.82-25.9-45.94-4.91-91.77.16-138.19.23C60.66,102,15.23,97.24-7.84,94.7l-23.08-2.45-1,19.35-.16,3L-40,266Z" fill="#0045b4"/>
  <path d="M-495.25,489.83c27.07-3.62,81.24-11.48,135.39-18.89s108.31-15.27,162.18-15.44S-90.2,461.92-37,478.6C16.25,495,69.09,521.49,122.41,535.46c53.31,14.15,107.1,16.23,161.25,8.68,54.16-7.72,108.68-24.62,162.38-20.28s106.53,30.83,160.32,32.77c53.78,2.22,108.5-20.1,162.37-20.28s106.54,37.25,160.42,30.33c148.27-19,146.07-116.54,159-177.29,23.3-109.75-90.77-214.95-129-219.06-49.41-5.31-97.29-8.75-147.16,3.94-49.29,12.44-99,35-148.46,37.71-48.81,3-97.11-13.4-145.66-34.61C470,156.38,422,130.08,373,121.08c-48.12-9.24-97.58-1.2-146.41,13.66-50.06,14.8-100.19,37.3-149,52.16C27.6,201.71-22.09,209.75-70,200.51c-48.91-9-97.38-35.31-145.38-41.83-48.89-6.73-97.86,5.85-147.34,8.78-49.15,2.76-97.49-3.64-122-7.17l-24.56-3.35-1.45,37.51-.23,5.88-11.35,293.29Z" fill="#195fff"/>
  <path d="M1679.74,615.18c-15.07.82-45.25,2.76-75.4,4.48s-60.33,3.66-90.13,1.82-59.27-7-88.25-17.13-57.49-25-86.6-33.75-58.79-11.83-88.95-10-60.79,8.26-90.37,4.2-58.08-19-87.78-21.9-60.56,6-90.36,4.21S924,524.88,894,526.37c-82.53,4.1-84,52.27-92.79,81.78-15.91,53.3,44.3,109.27,65.36,112.67,27.18,4.38,53.57,7.79,81.5,3.31,27.61-4.37,55.71-13.7,83.15-13.29,27.08.29,53.34,10.08,79.62,22.27,25.85,12.07,51.68,26.76,78.55,32.95,26.37,6.28,53.94,4.08,81.36-1.51,28.09-5.51,56.44-14.82,83.86-20.4,28-5.53,55.73-7.71,82-1.45,26.81,6.19,52.89,20.9,79.26,25.83,26.86,5.07,54.29.61,81.74.94,27.26.39,53.82,5.28,67.3,7.89l13.5,2.53,1.83-18.45.28-2.89,14.33-144.27Z" fill="#195fff"/>
</svg>
